<?xml version="1.0" standalone="no"?>
<!DOCTYPE svg PUBLIC "-//W3C//DTD SVG 1.1//EN" "http://www.w3.org/Graphics/SVG/1.1/DTD/svg11.dtd">
<svg version="1.1" width="1600" height="982" onload="init(evt)" viewBox="0 0 1600 982" xmlns="http://www.w3.org/2000/svg" xmlns:xlink="http://www.w3.org/1999/xlink">
<!-- Flame graph stack visualization. See https://github.com/brendangregg/FlameGraph for latest version, and http://www.brendangregg.com/flamegraphs.html for examples. -->
<!-- NOTES:  -->
<defs>
	<linearGradient id="background" y1="0" y2="1" x1="0" x2="0" >
		<stop stop-color="#eeeeee" offset="5%" />
		<stop stop-color="#eeeeb0" offset="95%" />
	</linearGradient>
</defs>
<style type="text/css">
	text { font-family:Verdana; font-size:12px; fill:rgb(0,0,0); }
	#search, #ignorecase { opacity:0.1; cursor:pointer; }
	#search:hover, #search.show, #ignorecase:hover, #ignorecase.show { opacity:1; }
	#subtitle { text-anchor:middle; font-color:rgb(160,160,160); }
	#title { text-anchor:middle; font-size:17px}
	#unzoom { cursor:pointer; }
	#frames > *:hover { stroke:black; stroke-width:0.5; cursor:pointer; }
	.hide { display:none; }
	.parent { opacity:0.5; }
</style>
<script type="text/ecmascript">
<![CDATA[
	"use strict";
	var details, searchbtn, unzoombtn, matchedtxt, svg, searching, currentSearchTerm, ignorecase, ignorecaseBtn;
	function init(evt) {
		details = document.getElementById("details").firstChild;
		searchbtn = document.getElementById("search");
		ignorecaseBtn = document.getElementById("ignorecase");
		unzoombtn = document.getElementById("unzoom");
		matchedtxt = document.getElementById("matched");
		svg = document.getElementsByTagName("svg")[0];
		searching = 0;
		currentSearchTerm = null;

		// use GET parameters to restore a flamegraphs state.
		var params = get_params();
		if (params.x && params.y)
			zoom(find_group(document.querySelector('[x="' + params.x + '"][y="' + params.y + '"]')));
                if (params.s) search(params.s);
	}

	// event listeners
	window.addEventListener("click", function(e) {
		var target = find_group(e.target);
		if (target) {
			if (target.nodeName == "a") {
				if (e.ctrlKey === false) return;
				e.preventDefault();
			}
			if (target.classList.contains("parent")) unzoom(true);
			zoom(target);
			if (!document.querySelector('.parent')) {
				// we have basically done a clearzoom so clear the url
				var params = get_params();
				if (params.x) delete params.x;
				if (params.y) delete params.y;
				history.replaceState(null, null, parse_params(params));
				unzoombtn.classList.add("hide");
				return;
			}

			// set parameters for zoom state
			var el = target.querySelector("rect");
			if (el && el.attributes && el.attributes.y && el.attributes._orig_x) {
				var params = get_params()
				params.x = el.attributes._orig_x.value;
				params.y = el.attributes.y.value;
				history.replaceState(null, null, parse_params(params));
			}
		}
		else if (e.target.id == "unzoom") clearzoom();
		else if (e.target.id == "search") search_prompt();
		else if (e.target.id == "ignorecase") toggle_ignorecase();
	}, false)

	// mouse-over for info
	// show
	window.addEventListener("mouseover", function(e) {
		var target = find_group(e.target);
		if (target) details.nodeValue = "Function: " + g_to_text(target);
	}, false)

	// clear
	window.addEventListener("mouseout", function(e) {
		var target = find_group(e.target);
		if (target) details.nodeValue = ' ';
	}, false)

	// ctrl-F for search
	// ctrl-I to toggle case-sensitive search
	window.addEventListener("keydown",function (e) {
		if (e.keyCode === 114 || (e.ctrlKey && e.keyCode === 70)) {
			e.preventDefault();
			search_prompt();
		}
		else if (e.ctrlKey && e.keyCode === 73) {
			e.preventDefault();
			toggle_ignorecase();
		}
	}, false)

	// functions
	function get_params() {
		var params = {};
		var paramsarr = window.location.search.substr(1).split('&');
		for (var i = 0; i < paramsarr.length; ++i) {
			var tmp = paramsarr[i].split("=");
			if (!tmp[0] || !tmp[1]) continue;
			params[tmp[0]]  = decodeURIComponent(tmp[1]);
		}
		return params;
	}
	function parse_params(params) {
		var uri = "?";
		for (var key in params) {
			uri += key + '=' + encodeURIComponent(params[key]) + '&';
		}
		if (uri.slice(-1) == "&")
			uri = uri.substring(0, uri.length - 1);
		if (uri == '?')
			uri = window.location.href.split('?')[0];
		return uri;
	}
	function find_child(node, selector) {
		var children = node.querySelectorAll(selector);
		if (children.length) return children[0];
	}
	function find_group(node) {
		var parent = node.parentElement;
		if (!parent) return;
		if (parent.id == "frames") return node;
		return find_group(parent);
	}
	function orig_save(e, attr, val) {
		if (e.attributes["_orig_" + attr] != undefined) return;
		if (e.attributes[attr] == undefined) return;
		if (val == undefined) val = e.attributes[attr].value;
		e.setAttribute("_orig_" + attr, val);
	}
	function orig_load(e, attr) {
		if (e.attributes["_orig_"+attr] == undefined) return;
		e.attributes[attr].value = e.attributes["_orig_" + attr].value;
		e.removeAttribute("_orig_"+attr);
	}
	function g_to_text(e) {
		var text = find_child(e, "title").firstChild.nodeValue;
		return (text)
	}
	function g_to_func(e) {
		var func = g_to_text(e);
		// if there's any manipulation we want to do to the function
		// name before it's searched, do it here before returning.
		return (func);
	}
	function update_text(e) {
		var r = find_child(e, "rect");
		var t = find_child(e, "text");
		var w = parseFloat(r.attributes.width.value) -3;
		var txt = find_child(e, "title").textContent.replace(/\([^(]*\)$/,"");
		t.attributes.x.value = parseFloat(r.attributes.x.value) + 3;

		// Smaller than this size won't fit anything
		if (w < 2 * 12 * 0.59) {
			t.textContent = "";
			return;
		}

		t.textContent = txt;
		var sl = t.getSubStringLength(0, txt.length);
		// check if only whitespace or if we can fit the entire string into width w
		if (/^ *$/.test(txt) || sl < w)
			return;

		// this isn't perfect, but gives a good starting point
		// and avoids calling getSubStringLength too often
		var start = Math.floor((w/sl) * txt.length);
		for (var x = start; x > 0; x = x-2) {
			if (t.getSubStringLength(0, x + 2) <= w) {
				t.textContent = txt.substring(0, x) + "..";
				return;
			}
		}
		t.textContent = "";
	}

	// zoom
	function zoom_reset(e) {
		if (e.attributes != undefined) {
			orig_load(e, "x");
			orig_load(e, "width");
		}
		if (e.childNodes == undefined) return;
		for (var i = 0, c = e.childNodes; i < c.length; i++) {
			zoom_reset(c[i]);
		}
	}
	function zoom_child(e, x, ratio) {
		if (e.attributes != undefined) {
			if (e.attributes.x != undefined) {
				orig_save(e, "x");
				e.attributes.x.value = (parseFloat(e.attributes.x.value) - x - 10) * ratio + 10;
				if (e.tagName == "text")
					e.attributes.x.value = find_child(e.parentNode, "rect[x]").attributes.x.value + 3;
			}
			if (e.attributes.width != undefined) {
				orig_save(e, "width");
				e.attributes.width.value = parseFloat(e.attributes.width.value) * ratio;
			}
		}

		if (e.childNodes == undefined) return;
		for (var i = 0, c = e.childNodes; i < c.length; i++) {
			zoom_child(c[i], x - 10, ratio);
		}
	}
	function zoom_parent(e) {
		if (e.attributes) {
			if (e.attributes.x != undefined) {
				orig_save(e, "x");
				e.attributes.x.value = 10;
			}
			if (e.attributes.width != undefined) {
				orig_save(e, "width");
				e.attributes.width.value = parseInt(svg.width.baseVal.value) - (10 * 2);
			}
		}
		if (e.childNodes == undefined) return;
		for (var i = 0, c = e.childNodes; i < c.length; i++) {
			zoom_parent(c[i]);
		}
	}
	function zoom(node) {
		var attr = find_child(node, "rect").attributes;
		var width = parseFloat(attr.width.value);
		var xmin = parseFloat(attr.x.value);
		var xmax = parseFloat(xmin + width);
		var ymin = parseFloat(attr.y.value);
		var ratio = (svg.width.baseVal.value - 2 * 10) / width;

		// XXX: Workaround for JavaScript float issues (fix me)
		var fudge = 0.0001;

		unzoombtn.classList.remove("hide");

		var el = document.getElementById("frames").children;
		for (var i = 0; i < el.length; i++) {
			var e = el[i];
			var a = find_child(e, "rect").attributes;
			var ex = parseFloat(a.x.value);
			var ew = parseFloat(a.width.value);
			var upstack;
			// Is it an ancestor
			if (0 == 0) {
				upstack = parseFloat(a.y.value) > ymin;
			} else {
				upstack = parseFloat(a.y.value) < ymin;
			}
			if (upstack) {
				// Direct ancestor
				if (ex <= xmin && (ex+ew+fudge) >= xmax) {
					e.classList.add("parent");
					zoom_parent(e);
					update_text(e);
				}
				// not in current path
				else
					e.classList.add("hide");
			}
			// Children maybe
			else {
				// no common path
				if (ex < xmin || ex + fudge >= xmax) {
					e.classList.add("hide");
				}
				else {
					zoom_child(e, xmin, ratio);
					update_text(e);
				}
			}
		}
		search();
	}
	function unzoom(dont_update_text) {
		unzoombtn.classList.add("hide");
		var el = document.getElementById("frames").children;
		for(var i = 0; i < el.length; i++) {
			el[i].classList.remove("parent");
			el[i].classList.remove("hide");
			zoom_reset(el[i]);
			if(!dont_update_text) update_text(el[i]);
		}
		search();
	}
	function clearzoom() {
		unzoom();

		// remove zoom state
		var params = get_params();
		if (params.x) delete params.x;
		if (params.y) delete params.y;
		history.replaceState(null, null, parse_params(params));
	}

	// search
	function toggle_ignorecase() {
		ignorecase = !ignorecase;
		if (ignorecase) {
			ignorecaseBtn.classList.add("show");
		} else {
			ignorecaseBtn.classList.remove("show");
		}
		reset_search();
		search();
	}
	function reset_search() {
		var el = document.querySelectorAll("#frames rect");
		for (var i = 0; i < el.length; i++) {
			orig_load(el[i], "fill")
		}
		var params = get_params();
		delete params.s;
		history.replaceState(null, null, parse_params(params));
	}
	function search_prompt() {
		if (!searching) {
			var term = prompt("Enter a search term (regexp " +
			    "allowed, eg: ^ext4_)"
			    + (ignorecase ? ", ignoring case" : "")
			    + "\nPress Ctrl-i to toggle case sensitivity", "");
			if (term != null) search(term);
		} else {
			reset_search();
			searching = 0;
			currentSearchTerm = null;
			searchbtn.classList.remove("show");
			searchbtn.firstChild.nodeValue = "Search"
			matchedtxt.classList.add("hide");
			matchedtxt.firstChild.nodeValue = ""
		}
	}
	function search(term) {
		if (term) currentSearchTerm = term;
		if (currentSearchTerm === null) return;

		var re = new RegExp(currentSearchTerm, ignorecase ? 'i' : '');
		var el = document.getElementById("frames").children;
		var matches = new Object();
		var maxwidth = 0;
		for (var i = 0; i < el.length; i++) {
			var e = el[i];
			var func = g_to_func(e);
			var rect = find_child(e, "rect");
			if (func == null || rect == null)
				continue;

			// Save max width. Only works as we have a root frame
			var w = parseFloat(rect.attributes.width.value);
			if (w > maxwidth)
				maxwidth = w;

			if (func.match(re)) {
				// highlight
				var x = parseFloat(rect.attributes.x.value);
				orig_save(rect, "fill");
				rect.attributes.fill.value = "rgb(230,0,230)";

				// remember matches
				if (matches[x] == undefined) {
					matches[x] = w;
				} else {
					if (w > matches[x]) {
						// overwrite with parent
						matches[x] = w;
					}
				}
				searching = 1;
			}
		}
		if (!searching)
			return;
		var params = get_params();
		params.s = currentSearchTerm;
		history.replaceState(null, null, parse_params(params));

		searchbtn.classList.add("show");
		searchbtn.firstChild.nodeValue = "Reset Search";

		// calculate percent matched, excluding vertical overlap
		var count = 0;
		var lastx = -1;
		var lastw = 0;
		var keys = Array();
		for (k in matches) {
			if (matches.hasOwnProperty(k))
				keys.push(k);
		}
		// sort the matched frames by their x location
		// ascending, then width descending
		keys.sort(function(a, b){
			return a - b;
		});
		// Step through frames saving only the biggest bottom-up frames
		// thanks to the sort order. This relies on the tree property
		// where children are always smaller than their parents.
		var fudge = 0.0001;	// JavaScript floating point
		for (var k in keys) {
			var x = parseFloat(keys[k]);
			var w = matches[keys[k]];
			if (x >= lastx + lastw - fudge) {
				count += w;
				lastx = x;
				lastw = w;
			}
		}
		// display matched percent
		matchedtxt.classList.remove("hide");
		var pct = 100 * count / maxwidth;
		if (pct != 100) pct = pct.toFixed(1)
		matchedtxt.firstChild.nodeValue = "Matched: " + pct + "%";
	}
]]>
</script>
<rect x="0.0" y="0" width="1600.0" height="982.0" fill="url(#background)"  />
<text id="title" x="800.00" y="24" >kube-apiserver perf (60s@99Hz)</text>
<text id="details" x="10.00" y="965" > </text>
<text id="unzoom" x="10.00" y="24" class="hide">Reset Zoom</text>
<text id="search" x="1490.00" y="24" >Search</text>
<text id="ignorecase" x="1574.00" y="24" >ic</text>
<text id="matched" x="1490.00" y="965" > </text>
<g id="frames">
<g >
<title>tcp_push (10,101,010 samples, 1.69%)</title><rect x="1161.5" y="549" width="26.8" height="15.0" fill="rgb(243,176,42)" rx="2" ry="2" />
<text  x="1164.53" y="559.5" >t..</text>
</g>
<g >
<title>pipe_write (10,101,010 samples, 1.69%)</title><rect x="1429.3" y="629" width="26.8" height="15.0" fill="rgb(236,146,35)" rx="2" ry="2" />
<text  x="1432.32" y="639.5" >p..</text>
</g>
<g >
<title>neigh_hh_output (10,101,010 samples, 1.69%)</title><rect x="1161.5" y="373" width="26.8" height="15.0" fill="rgb(213,37,8)" rx="2" ry="2" />
<text  x="1164.53" y="383.5" >n..</text>
</g>
<g >
<title>wake_up_q (10,101,010 samples, 1.69%)</title><rect x="947.3" y="581" width="26.8" height="15.0" fill="rgb(237,151,36)" rx="2" ry="2" />
<text  x="950.29" y="591.5" >w..</text>
</g>
<g >
<title>[kube-apiserver] (50,505,050 samples, 8.47%)</title><rect x="813.4" y="613" width="133.9" height="15.0" fill="rgb(240,162,38)" rx="2" ry="2" />
<text  x="816.39" y="623.5" >[kube-apiserver]</text>
</g>
<g >
<title>ep_poll (20,202,020 samples, 3.39%)</title><rect x="866.9" y="469" width="53.6" height="15.0" fill="rgb(238,151,36)" rx="2" ry="2" />
<text  x="869.95" y="479.5" >ep_poll</text>
</g>
<g >
<title>entry_SYSCALL_64_after_hwframe (30,303,030 samples, 5.08%)</title><rect x="866.9" y="565" width="80.4" height="15.0" fill="rgb(218,63,15)" rx="2" ry="2" />
<text  x="869.95" y="575.5" >entry_SYS..</text>
</g>
<g >
<title>schedule_hrtimeout_range_clock (40,404,040 samples, 6.78%)</title><rect x="1054.4" y="581" width="107.1" height="15.0" fill="rgb(222,81,19)" rx="2" ry="2" />
<text  x="1057.41" y="591.5" >schedule_hrti..</text>
</g>
<g >
<title>ksys_write (10,101,010 samples, 1.69%)</title><rect x="1429.3" y="661" width="26.8" height="15.0" fill="rgb(205,4,1)" rx="2" ry="2" />
<text  x="1432.32" y="671.5" >k..</text>
</g>
<g >
<title>entry_SYSCALL_64_after_hwframe (20,202,020 samples, 3.39%)</title><rect x="1482.9" y="773" width="53.5" height="15.0" fill="rgb(218,63,15)" rx="2" ry="2" />
<text  x="1485.88" y="783.5" >entry..</text>
</g>
<g >
<title>futex_wake (10,101,010 samples, 1.69%)</title><rect x="1000.8" y="613" width="26.8" height="15.0" fill="rgb(219,65,15)" rx="2" ry="2" />
<text  x="1003.85" y="623.5" >f..</text>
</g>
<g >
<title>finish_task_switch.isra.0 (10,101,010 samples, 1.69%)</title><rect x="1509.7" y="613" width="26.7" height="15.0" fill="rgb(246,189,45)" rx="2" ry="2" />
<text  x="1512.66" y="623.5" >f..</text>
</g>
<g >
<title>_raw_spin_unlock_irqrestore (10,101,010 samples, 1.69%)</title><rect x="1000.8" y="581" width="26.8" height="15.0" fill="rgb(228,106,25)" rx="2" ry="2" />
<text  x="1003.85" y="591.5" >_..</text>
</g>
<g >
<title>__x64_sys_getrandom (10,101,010 samples, 1.69%)</title><rect x="920.5" y="517" width="26.8" height="15.0" fill="rgb(223,85,20)" rx="2" ry="2" />
<text  x="923.51" y="527.5" >_..</text>
</g>
<g >
<title>[kube-apiserver] (20,202,020 samples, 3.39%)</title><rect x="813.4" y="565" width="53.5" height="15.0" fill="rgb(240,162,38)" rx="2" ry="2" />
<text  x="816.39" y="575.5" >[kube..</text>
</g>
<g >
<title>_raw_spin_unlock_irqrestore (10,101,010 samples, 1.69%)</title><rect x="1161.5" y="37" width="26.8" height="15.0" fill="rgb(228,106,25)" rx="2" ry="2" />
<text  x="1164.53" y="47.5" >_..</text>
</g>
<g >
<title>schedule (10,101,010 samples, 1.69%)</title><rect x="1509.7" y="645" width="26.7" height="15.0" fill="rgb(254,229,54)" rx="2" ry="2" />
<text  x="1512.66" y="655.5" >s..</text>
</g>
<g >
<title>[kube-apiserver] (20,202,020 samples, 3.39%)</title><rect x="1482.9" y="837" width="53.5" height="15.0" fill="rgb(240,162,38)" rx="2" ry="2" />
<text  x="1485.88" y="847.5" >[kube..</text>
</g>
<g >
<title>__napi_poll (10,101,010 samples, 1.69%)</title><rect x="1161.5" y="261" width="26.8" height="15.0" fill="rgb(247,195,46)" rx="2" ry="2" />
<text  x="1164.53" y="271.5" >_..</text>
</g>
<g >
<title>x64_sys_call (80,808,080 samples, 13.56%)</title><rect x="1241.9" y="693" width="214.2" height="15.0" fill="rgb(247,194,46)" rx="2" ry="2" />
<text  x="1244.86" y="703.5" >x64_sys_call</text>
</g>
<g >
<title>do_epoll_wait (20,202,020 samples, 3.39%)</title><rect x="866.9" y="485" width="53.6" height="15.0" fill="rgb(211,31,7)" rx="2" ry="2" />
<text  x="869.95" y="495.5" >do_ep..</text>
</g>
<g >
<title>kube-apiserver (595,959,590 samples, 100.00%)</title><rect x="10.0" y="917" width="1580.0" height="15.0" fill="rgb(229,110,26)" rx="2" ry="2" />
<text  x="13.00" y="927.5" >kube-apiserver</text>
</g>
<g >
<title>[unknown] (20,202,020 samples, 3.39%)</title><rect x="1536.4" y="853" width="53.6" height="15.0" fill="rgb(210,24,5)" rx="2" ry="2" />
<text  x="1539.44" y="863.5" >[unkn..</text>
</g>
<g >
<title>net_rx_action (10,101,010 samples, 1.69%)</title><rect x="1161.5" y="277" width="26.8" height="15.0" fill="rgb(240,164,39)" rx="2" ry="2" />
<text  x="1164.53" y="287.5" >n..</text>
</g>
<g >
<title>[kube-apiserver] (90,909,090 samples, 15.25%)</title><rect x="706.3" y="677" width="241.0" height="15.0" fill="rgb(240,162,38)" rx="2" ry="2" />
<text  x="709.27" y="687.5" >[kube-apiserver]</text>
</g>
<g >
<title>__dev_queue_xmit (10,101,010 samples, 1.69%)</title><rect x="1161.5" y="357" width="26.8" height="15.0" fill="rgb(244,182,43)" rx="2" ry="2" />
<text  x="1164.53" y="367.5" >_..</text>
</g>
<g >
<title>[kube-apiserver] (10,101,010 samples, 1.69%)</title><rect x="840.2" y="501" width="26.7" height="15.0" fill="rgb(240,162,38)" rx="2" ry="2" />
<text  x="843.17" y="511.5" >[..</text>
</g>
<g >
<title>finish_task_switch.isra.0 (40,404,040 samples, 6.78%)</title><rect x="1322.2" y="549" width="107.1" height="15.0" fill="rgb(246,189,45)" rx="2" ry="2" />
<text  x="1325.20" y="559.5" >finish_task_s..</text>
</g>
<g >
<title>ip_local_out (10,101,010 samples, 1.69%)</title><rect x="1161.5" y="453" width="26.8" height="15.0" fill="rgb(233,131,31)" rx="2" ry="2" />
<text  x="1164.53" y="463.5" >i..</text>
</g>
<g >
<title>__schedule (20,202,020 samples, 3.39%)</title><rect x="866.9" y="405" width="53.6" height="15.0" fill="rgb(227,103,24)" rx="2" ry="2" />
<text  x="869.95" y="415.5" >__sch..</text>
</g>
<g >
<title>[kube-apiserver] (50,505,050 samples, 8.47%)</title><rect x="813.4" y="581" width="133.9" height="15.0" fill="rgb(240,162,38)" rx="2" ry="2" />
<text  x="816.39" y="591.5" >[kube-apiserver]</text>
</g>
<g >
<title>x64_sys_call (10,101,010 samples, 1.69%)</title><rect x="947.3" y="645" width="26.8" height="15.0" fill="rgb(247,194,46)" rx="2" ry="2" />
<text  x="950.29" y="655.5" >x..</text>
</g>
<g >
<title>do_epoll_pwait.part.0 (70,707,070 samples, 11.86%)</title><rect x="1241.9" y="661" width="187.4" height="15.0" fill="rgb(248,197,47)" rx="2" ry="2" />
<text  x="1244.86" y="671.5" >do_epoll_pwait.part.0</text>
</g>
<g >
<title>[kube-apiserver] (323,232,320 samples, 54.24%)</title><rect x="599.2" y="741" width="856.9" height="15.0" fill="rgb(240,162,38)" rx="2" ry="2" />
<text  x="602.15" y="751.5" >[kube-apiserver]</text>
</g>
<g >
<title>tcp_v4_do_rcv (10,101,010 samples, 1.69%)</title><rect x="1161.5" y="117" width="26.8" height="15.0" fill="rgb(210,26,6)" rx="2" ry="2" />
<text  x="1164.53" y="127.5" >t..</text>
</g>
<g >
<title>wake_up_q (10,101,010 samples, 1.69%)</title><rect x="1000.8" y="597" width="26.8" height="15.0" fill="rgb(237,151,36)" rx="2" ry="2" />
<text  x="1003.85" y="607.5" >w..</text>
</g>
<g >
<title>[kube-apiserver] (555,555,550 samples, 93.22%)</title><rect x="10.0" y="901" width="1472.9" height="15.0" fill="rgb(240,162,38)" rx="2" ry="2" />
<text  x="13.00" y="911.5" >[kube-apiserver]</text>
</g>
<g >
<title>__x64_sys_futex (20,202,020 samples, 3.39%)</title><rect x="1482.9" y="725" width="53.5" height="15.0" fill="rgb(239,159,38)" rx="2" ry="2" />
<text  x="1485.88" y="735.5" >__x64..</text>
</g>
<g >
<title>__do_softirq (10,101,010 samples, 1.69%)</title><rect x="1161.5" y="309" width="26.8" height="15.0" fill="rgb(246,191,45)" rx="2" ry="2" />
<text  x="1164.53" y="319.5" >_..</text>
</g>
<g >
<title>_raw_spin_unlock_irqrestore (10,101,010 samples, 1.69%)</title><rect x="1429.3" y="613" width="26.8" height="15.0" fill="rgb(228,106,25)" rx="2" ry="2" />
<text  x="1432.32" y="623.5" >_..</text>
</g>
<g >
<title>crng_make_state (10,101,010 samples, 1.69%)</title><rect x="920.5" y="485" width="26.8" height="15.0" fill="rgb(239,157,37)" rx="2" ry="2" />
<text  x="923.51" y="495.5" >c..</text>
</g>
<g >
<title>__x64_sys_epoll_pwait (20,202,020 samples, 3.39%)</title><rect x="866.9" y="517" width="53.6" height="15.0" fill="rgb(232,128,30)" rx="2" ry="2" />
<text  x="869.95" y="527.5" >__x64..</text>
</g>
<g >
<title>__x64_sys_epoll_pwait (40,404,040 samples, 6.78%)</title><rect x="1054.4" y="661" width="107.1" height="15.0" fill="rgb(232,128,30)" rx="2" ry="2" />
<text  x="1057.41" y="671.5" >__x64_sys_epo..</text>
</g>
<g >
<title>[kube-apiserver] (10,101,010 samples, 1.69%)</title><rect x="840.2" y="485" width="26.7" height="15.0" fill="rgb(240,162,38)" rx="2" ry="2" />
<text  x="843.17" y="495.5" >[..</text>
</g>
<g >
<title>[kube-apiserver] (50,505,050 samples, 8.47%)</title><rect x="813.4" y="629" width="133.9" height="15.0" fill="rgb(240,162,38)" rx="2" ry="2" />
<text  x="816.39" y="639.5" >[kube-apiserver]</text>
</g>
<g >
<title>futex_wake (10,101,010 samples, 1.69%)</title><rect x="947.3" y="597" width="26.8" height="15.0" fill="rgb(219,65,15)" rx="2" ry="2" />
<text  x="950.29" y="607.5" >f..</text>
</g>
<g >
<title>entry_SYSCALL_64_after_hwframe (80,808,080 samples, 13.56%)</title><rect x="1027.6" y="709" width="214.3" height="15.0" fill="rgb(218,63,15)" rx="2" ry="2" />
<text  x="1030.63" y="719.5" >entry_SYSCALL_64_after_hwframe</text>
</g>
<g >
<title>__fdget (30,303,030 samples, 5.08%)</title><rect x="1241.9" y="629" width="80.3" height="15.0" fill="rgb(214,41,10)" rx="2" ry="2" />
<text  x="1244.86" y="639.5" >__fdget</text>
</g>
<g >
<title>__ip_finish_output (10,101,010 samples, 1.69%)</title><rect x="1161.5" y="405" width="26.8" height="15.0" fill="rgb(215,47,11)" rx="2" ry="2" />
<text  x="1164.53" y="415.5" >_..</text>
</g>
<g >
<title>plist_del (10,101,010 samples, 1.69%)</title><rect x="1482.9" y="645" width="26.8" height="15.0" fill="rgb(212,32,7)" rx="2" ry="2" />
<text  x="1485.88" y="655.5" >p..</text>
</g>
<g >
<title>ip_local_deliver_finish (10,101,010 samples, 1.69%)</title><rect x="1161.5" y="165" width="26.8" height="15.0" fill="rgb(225,95,22)" rx="2" ry="2" />
<text  x="1164.53" y="175.5" >i..</text>
</g>
<g >
<title>futex_unqueue (10,101,010 samples, 1.69%)</title><rect x="1482.9" y="661" width="26.8" height="15.0" fill="rgb(245,185,44)" rx="2" ry="2" />
<text  x="1485.88" y="671.5" >f..</text>
</g>
<g >
<title>do_futex (10,101,010 samples, 1.69%)</title><rect x="947.3" y="613" width="26.8" height="15.0" fill="rgb(245,184,44)" rx="2" ry="2" />
<text  x="950.29" y="623.5" >d..</text>
</g>
<g >
<title>tcp_sendmsg (10,101,010 samples, 1.69%)</title><rect x="1161.5" y="581" width="26.8" height="15.0" fill="rgb(223,83,19)" rx="2" ry="2" />
<text  x="1164.53" y="591.5" >t..</text>
</g>
<g >
<title>[kube-apiserver] (363,636,360 samples, 61.02%)</title><rect x="492.0" y="757" width="964.1" height="15.0" fill="rgb(240,162,38)" rx="2" ry="2" />
<text  x="495.03" y="767.5" >[kube-apiserver]</text>
</g>
<g >
<title>[kube-apiserver] (20,202,020 samples, 3.39%)</title><rect x="1482.9" y="821" width="53.5" height="15.0" fill="rgb(240,162,38)" rx="2" ry="2" />
<text  x="1485.88" y="831.5" >[kube..</text>
</g>
<g >
<title>[kube-apiserver] (10,101,010 samples, 1.69%)</title><rect x="840.2" y="533" width="26.7" height="15.0" fill="rgb(240,162,38)" rx="2" ry="2" />
<text  x="843.17" y="543.5" >[..</text>
</g>
<g >
<title>[kube-apiserver] (60,606,060 samples, 10.17%)</title><rect x="786.6" y="645" width="160.7" height="15.0" fill="rgb(240,162,38)" rx="2" ry="2" />
<text  x="789.61" y="655.5" >[kube-apiserver]</text>
</g>
<g >
<title>futex_wait_queue (10,101,010 samples, 1.69%)</title><rect x="1509.7" y="661" width="26.7" height="15.0" fill="rgb(225,92,22)" rx="2" ry="2" />
<text  x="1512.66" y="671.5" >f..</text>
</g>
<g >
<title>timespec64_add_safe (10,101,010 samples, 1.69%)</title><rect x="1188.3" y="661" width="26.8" height="15.0" fill="rgb(209,20,4)" rx="2" ry="2" />
<text  x="1191.31" y="671.5" >t..</text>
</g>
<g >
<title>do_syscall_64 (20,202,020 samples, 3.39%)</title><rect x="1482.9" y="757" width="53.5" height="15.0" fill="rgb(209,20,4)" rx="2" ry="2" />
<text  x="1485.88" y="767.5" >do_sy..</text>
</g>
<g >
<title>process_backlog (10,101,010 samples, 1.69%)</title><rect x="1161.5" y="245" width="26.8" height="15.0" fill="rgb(224,90,21)" rx="2" ry="2" />
<text  x="1164.53" y="255.5" >p..</text>
</g>
<g >
<title>do_softirq (10,101,010 samples, 1.69%)</title><rect x="1161.5" y="325" width="26.8" height="15.0" fill="rgb(223,87,20)" rx="2" ry="2" />
<text  x="1164.53" y="335.5" >d..</text>
</g>
<g >
<title>x64_sys_call (20,202,020 samples, 3.39%)</title><rect x="1482.9" y="741" width="53.5" height="15.0" fill="rgb(247,194,46)" rx="2" ry="2" />
<text  x="1485.88" y="751.5" >x64_s..</text>
</g>
<g >
<title>tcp_data_queue (10,101,010 samples, 1.69%)</title><rect x="1161.5" y="85" width="26.8" height="15.0" fill="rgb(228,109,26)" rx="2" ry="2" />
<text  x="1164.53" y="95.5" >t..</text>
</g>
<g >
<title>[kube-apiserver] (131,313,130 samples, 22.03%)</title><rect x="679.5" y="709" width="348.1" height="15.0" fill="rgb(240,162,38)" rx="2" ry="2" />
<text  x="682.49" y="719.5" >[kube-apiserver]</text>
</g>
<g >
<title>__futex_wait (20,202,020 samples, 3.39%)</title><rect x="1482.9" y="677" width="53.5" height="15.0" fill="rgb(207,12,3)" rx="2" ry="2" />
<text  x="1485.88" y="687.5" >__fut..</text>
</g>
<g >
<title>[kube-apiserver] (222,222,220 samples, 37.29%)</title><rect x="652.7" y="725" width="589.2" height="15.0" fill="rgb(240,162,38)" rx="2" ry="2" />
<text  x="655.71" y="735.5" >[kube-apiserver]</text>
</g>
<g >
<title>do_epoll_pwait.part.0 (40,404,040 samples, 6.78%)</title><rect x="1054.4" y="645" width="107.1" height="15.0" fill="rgb(248,197,47)" rx="2" ry="2" />
<text  x="1057.41" y="655.5" >do_epoll_pwai..</text>
</g>
<g >
<title>[unknown] (20,202,020 samples, 3.39%)</title><rect x="1536.4" y="869" width="53.6" height="15.0" fill="rgb(210,24,5)" rx="2" ry="2" />
<text  x="1539.44" y="879.5" >[unkn..</text>
</g>
<g >
<title>schedule_hrtimeout_range_clock (20,202,020 samples, 3.39%)</title><rect x="866.9" y="437" width="53.6" height="15.0" fill="rgb(222,81,19)" rx="2" ry="2" />
<text  x="869.95" y="447.5" >sched..</text>
</g>
<g >
<title>all (595,959,590 samples, 100%)</title><rect x="10.0" y="933" width="1580.0" height="15.0" fill="rgb(213,39,9)" rx="2" ry="2" />
<text  x="13.00" y="943.5" ></text>
</g>
<g >
<title>ep_poll (40,404,040 samples, 6.78%)</title><rect x="1054.4" y="613" width="107.1" height="15.0" fill="rgb(238,151,36)" rx="2" ry="2" />
<text  x="1057.41" y="623.5" >ep_poll</text>
</g>
<g >
<title>ip_output (10,101,010 samples, 1.69%)</title><rect x="1161.5" y="437" width="26.8" height="15.0" fill="rgb(247,194,46)" rx="2" ry="2" />
<text  x="1164.53" y="447.5" >i..</text>
</g>
<g >
<title>[kube-apiserver] (20,202,020 samples, 3.39%)</title><rect x="813.4" y="549" width="53.5" height="15.0" fill="rgb(240,162,38)" rx="2" ry="2" />
<text  x="816.39" y="559.5" >[kube..</text>
</g>
<g >
<title>inet_sendmsg (10,101,010 samples, 1.69%)</title><rect x="1161.5" y="597" width="26.8" height="15.0" fill="rgb(244,183,43)" rx="2" ry="2" />
<text  x="1164.53" y="607.5" >i..</text>
</g>
<g >
<title>[kube-apiserver] (101,010,100 samples, 16.95%)</title><rect x="706.3" y="693" width="267.8" height="15.0" fill="rgb(240,162,38)" rx="2" ry="2" />
<text  x="709.27" y="703.5" >[kube-apiserver]</text>
</g>
<g >
<title>handle_softirqs (10,101,010 samples, 1.69%)</title><rect x="1161.5" y="293" width="26.8" height="15.0" fill="rgb(238,156,37)" rx="2" ry="2" />
<text  x="1164.53" y="303.5" >h..</text>
</g>
<g >
<title>ip_finish_output (10,101,010 samples, 1.69%)</title><rect x="1161.5" y="421" width="26.8" height="15.0" fill="rgb(242,173,41)" rx="2" ry="2" />
<text  x="1164.53" y="431.5" >i..</text>
</g>
<g >
<title>do_epoll_wait (70,707,070 samples, 11.86%)</title><rect x="1241.9" y="645" width="187.4" height="15.0" fill="rgb(211,31,7)" rx="2" ry="2" />
<text  x="1244.86" y="655.5" >do_epoll_wait</text>
</g>
<g >
<title>[unknown] (40,404,040 samples, 6.78%)</title><rect x="1482.9" y="901" width="107.1" height="15.0" fill="rgb(210,24,5)" rx="2" ry="2" />
<text  x="1485.88" y="911.5" >[unknown]</text>
</g>
<g >
<title>vfs_write (10,101,010 samples, 1.69%)</title><rect x="1161.5" y="629" width="26.8" height="15.0" fill="rgb(250,209,50)" rx="2" ry="2" />
<text  x="1164.53" y="639.5" >v..</text>
</g>
<g >
<title>ip_protocol_deliver_rcu (10,101,010 samples, 1.69%)</title><rect x="1161.5" y="149" width="26.8" height="15.0" fill="rgb(215,49,11)" rx="2" ry="2" />
<text  x="1164.53" y="159.5" >i..</text>
</g>
<g >
<title>tcp_write_xmit (10,101,010 samples, 1.69%)</title><rect x="1161.5" y="517" width="26.8" height="15.0" fill="rgb(231,122,29)" rx="2" ry="2" />
<text  x="1164.53" y="527.5" >t..</text>
</g>
<g >
<title>do_futex (20,202,020 samples, 3.39%)</title><rect x="974.1" y="629" width="53.5" height="15.0" fill="rgb(245,184,44)" rx="2" ry="2" />
<text  x="977.07" y="639.5" >do_fu..</text>
</g>
<g >
<title>__x64_sys_write (10,101,010 samples, 1.69%)</title><rect x="1429.3" y="677" width="26.8" height="15.0" fill="rgb(246,189,45)" rx="2" ry="2" />
<text  x="1432.32" y="687.5" >_..</text>
</g>
<g >
<title>__schedule (10,101,010 samples, 1.69%)</title><rect x="1509.7" y="629" width="26.7" height="15.0" fill="rgb(227,103,24)" rx="2" ry="2" />
<text  x="1512.66" y="639.5" >_..</text>
</g>
<g >
<title>entry_SYSCALL_64_after_hwframe (80,808,080 samples, 13.56%)</title><rect x="1241.9" y="725" width="214.2" height="15.0" fill="rgb(218,63,15)" rx="2" ry="2" />
<text  x="1244.86" y="735.5" >entry_SYSCALL_64_after_hwframe</text>
</g>
<g >
<title>__x64_sys_futex (10,101,010 samples, 1.69%)</title><rect x="947.3" y="629" width="26.8" height="15.0" fill="rgb(239,159,38)" rx="2" ry="2" />
<text  x="950.29" y="639.5" >_..</text>
</g>
<g >
<title>[kube-apiserver] (525,252,520 samples, 88.14%)</title><rect x="90.3" y="837" width="1392.6" height="15.0" fill="rgb(240,162,38)" rx="2" ry="2" />
<text  x="93.34" y="847.5" >[kube-apiserver]</text>
</g>
<g >
<title>futex_wait_queue (10,101,010 samples, 1.69%)</title><rect x="974.1" y="581" width="26.7" height="15.0" fill="rgb(225,92,22)" rx="2" ry="2" />
<text  x="977.07" y="591.5" >f..</text>
</g>
<g >
<title>__tcp_transmit_skb (10,101,010 samples, 1.69%)</title><rect x="1161.5" y="501" width="26.8" height="15.0" fill="rgb(231,122,29)" rx="2" ry="2" />
<text  x="1164.53" y="511.5" >_..</text>
</g>
<g >
<title>[kube-apiserver] (454,545,450 samples, 76.27%)</title><rect x="277.8" y="821" width="1205.1" height="15.0" fill="rgb(240,162,38)" rx="2" ry="2" />
<text  x="280.80" y="831.5" >[kube-apiserver]</text>
</g>
<g >
<title>schedule (20,202,020 samples, 3.39%)</title><rect x="866.9" y="421" width="53.6" height="15.0" fill="rgb(254,229,54)" rx="2" ry="2" />
<text  x="869.95" y="431.5" >sched..</text>
</g>
<g >
<title>__x64_sys_write (10,101,010 samples, 1.69%)</title><rect x="1161.5" y="661" width="26.8" height="15.0" fill="rgb(246,189,45)" rx="2" ry="2" />
<text  x="1164.53" y="671.5" >_..</text>
</g>
<g >
<title>irq_exit_rcu (10,101,010 samples, 1.69%)</title><rect x="1456.1" y="757" width="26.8" height="15.0" fill="rgb(254,227,54)" rx="2" ry="2" />
<text  x="1459.10" y="767.5" >i..</text>
</g>
<g >
<title>[kube-apiserver] (20,202,020 samples, 3.39%)</title><rect x="1536.4" y="773" width="53.6" height="15.0" fill="rgb(240,162,38)" rx="2" ry="2" />
<text  x="1539.44" y="783.5" >[kube..</text>
</g>
<g >
<title>entry_SYSCALL_64_after_hwframe (20,202,020 samples, 3.39%)</title><rect x="974.1" y="693" width="53.5" height="15.0" fill="rgb(218,63,15)" rx="2" ry="2" />
<text  x="977.07" y="703.5" >entry..</text>
</g>
<g >
<title>tcp_rcv_established (10,101,010 samples, 1.69%)</title><rect x="1161.5" y="101" width="26.8" height="15.0" fill="rgb(242,170,40)" rx="2" ry="2" />
<text  x="1164.53" y="111.5" >t..</text>
</g>
<g >
<title>vfs_write (10,101,010 samples, 1.69%)</title><rect x="1429.3" y="645" width="26.8" height="15.0" fill="rgb(250,209,50)" rx="2" ry="2" />
<text  x="1432.32" y="655.5" >v..</text>
</g>
<g >
<title>schedule_hrtimeout_range (40,404,040 samples, 6.78%)</title><rect x="1322.2" y="613" width="107.1" height="15.0" fill="rgb(221,75,18)" rx="2" ry="2" />
<text  x="1325.20" y="623.5" >schedule_hrti..</text>
</g>
<g >
<title>[kube-apiserver] (20,202,020 samples, 3.39%)</title><rect x="1536.4" y="837" width="53.6" height="15.0" fill="rgb(240,162,38)" rx="2" ry="2" />
<text  x="1539.44" y="847.5" >[kube..</text>
</g>
<g >
<title>do_syscall_64 (30,303,030 samples, 5.08%)</title><rect x="866.9" y="549" width="80.4" height="15.0" fill="rgb(209,20,4)" rx="2" ry="2" />
<text  x="869.95" y="559.5" >do_syscal..</text>
</g>
<g >
<title>sock_write_iter (10,101,010 samples, 1.69%)</title><rect x="1161.5" y="613" width="26.8" height="15.0" fill="rgb(243,178,42)" rx="2" ry="2" />
<text  x="1164.53" y="623.5" >s..</text>
</g>
<g >
<title>schedule (30,303,030 samples, 5.08%)</title><rect x="1081.2" y="565" width="80.3" height="15.0" fill="rgb(254,229,54)" rx="2" ry="2" />
<text  x="1084.19" y="575.5" >schedule</text>
</g>
<g >
<title>[kube-apiserver] (10,101,010 samples, 1.69%)</title><rect x="840.2" y="469" width="26.7" height="15.0" fill="rgb(240,162,38)" rx="2" ry="2" />
<text  x="843.17" y="479.5" >[..</text>
</g>
<g >
<title>sysvec_hyperv_stimer0 (10,101,010 samples, 1.69%)</title><rect x="1456.1" y="773" width="26.8" height="15.0" fill="rgb(212,35,8)" rx="2" ry="2" />
<text  x="1459.10" y="783.5" >s..</text>
</g>
<g >
<title>get_random_bytes_user (10,101,010 samples, 1.69%)</title><rect x="920.5" y="501" width="26.8" height="15.0" fill="rgb(217,57,13)" rx="2" ry="2" />
<text  x="923.51" y="511.5" >g..</text>
</g>
<g >
<title>update_blocked_averages (10,101,010 samples, 1.69%)</title><rect x="1456.1" y="693" width="26.8" height="15.0" fill="rgb(240,163,38)" rx="2" ry="2" />
<text  x="1459.10" y="703.5" >u..</text>
</g>
<g >
<title>ip_rcv (10,101,010 samples, 1.69%)</title><rect x="1161.5" y="197" width="26.8" height="15.0" fill="rgb(209,22,5)" rx="2" ry="2" />
<text  x="1164.53" y="207.5" >i..</text>
</g>
<g >
<title>futex_wait (20,202,020 samples, 3.39%)</title><rect x="1482.9" y="693" width="53.5" height="15.0" fill="rgb(235,138,33)" rx="2" ry="2" />
<text  x="1485.88" y="703.5" >futex..</text>
</g>
<g >
<title>__local_bh_enable_ip (10,101,010 samples, 1.69%)</title><rect x="1161.5" y="341" width="26.8" height="15.0" fill="rgb(237,147,35)" rx="2" ry="2" />
<text  x="1164.53" y="351.5" >_..</text>
</g>
<g >
<title>handle_softirqs (10,101,010 samples, 1.69%)</title><rect x="1456.1" y="725" width="26.8" height="15.0" fill="rgb(238,156,37)" rx="2" ry="2" />
<text  x="1459.10" y="735.5" >h..</text>
</g>
<g >
<title>[kube-apiserver] (20,202,020 samples, 3.39%)</title><rect x="1482.9" y="885" width="53.5" height="15.0" fill="rgb(240,162,38)" rx="2" ry="2" />
<text  x="1485.88" y="895.5" >[kube..</text>
</g>
<g >
<title>__tcp_push_pending_frames (10,101,010 samples, 1.69%)</title><rect x="1161.5" y="533" width="26.8" height="15.0" fill="rgb(230,117,28)" rx="2" ry="2" />
<text  x="1164.53" y="543.5" >_..</text>
</g>
<g >
<title>__schedule (30,303,030 samples, 5.08%)</title><rect x="1081.2" y="549" width="80.3" height="15.0" fill="rgb(227,103,24)" rx="2" ry="2" />
<text  x="1084.19" y="559.5" >__schedule</text>
</g>
<g >
<title>[kube-apiserver] (20,202,020 samples, 3.39%)</title><rect x="1536.4" y="821" width="53.6" height="15.0" fill="rgb(240,162,38)" rx="2" ry="2" />
<text  x="1539.44" y="831.5" >[kube..</text>
</g>
<g >
<title>[kube-apiserver] (80,808,080 samples, 13.56%)</title><rect x="733.1" y="661" width="214.2" height="15.0" fill="rgb(240,162,38)" rx="2" ry="2" />
<text  x="736.05" y="671.5" >[kube-apiserver]</text>
</g>
<g >
<title>schedule_hrtimeout_range_clock (40,404,040 samples, 6.78%)</title><rect x="1322.2" y="597" width="107.1" height="15.0" fill="rgb(222,81,19)" rx="2" ry="2" />
<text  x="1325.20" y="607.5" >schedule_hrti..</text>
</g>
<g >
<title>finish_task_switch.isra.0 (20,202,020 samples, 3.39%)</title><rect x="866.9" y="389" width="53.6" height="15.0" fill="rgb(246,189,45)" rx="2" ry="2" />
<text  x="869.95" y="399.5" >finis..</text>
</g>
<g >
<title>asm_sysvec_hyperv_stimer0 (10,101,010 samples, 1.69%)</title><rect x="1456.1" y="789" width="26.8" height="15.0" fill="rgb(225,94,22)" rx="2" ry="2" />
<text  x="1459.10" y="799.5" >a..</text>
</g>
<g >
<title>do_syscall_64 (20,202,020 samples, 3.39%)</title><rect x="974.1" y="677" width="53.5" height="15.0" fill="rgb(209,20,4)" rx="2" ry="2" />
<text  x="977.07" y="687.5" >do_sy..</text>
</g>
<g >
<title>[kube-apiserver] (50,505,050 samples, 8.47%)</title><rect x="813.4" y="597" width="133.9" height="15.0" fill="rgb(240,162,38)" rx="2" ry="2" />
<text  x="816.39" y="607.5" >[kube-apiserver]</text>
</g>
<g >
<title>x64_sys_call (30,303,030 samples, 5.08%)</title><rect x="866.9" y="533" width="80.4" height="15.0" fill="rgb(247,194,46)" rx="2" ry="2" />
<text  x="869.95" y="543.5" >x64_sys_c..</text>
</g>
<g >
<title>finish_task_switch.isra.0 (10,101,010 samples, 1.69%)</title><rect x="974.1" y="533" width="26.7" height="15.0" fill="rgb(246,189,45)" rx="2" ry="2" />
<text  x="977.07" y="543.5" >f..</text>
</g>
<g >
<title>do_syscall_64 (70,707,070 samples, 11.86%)</title><rect x="1027.6" y="693" width="187.5" height="15.0" fill="rgb(209,20,4)" rx="2" ry="2" />
<text  x="1030.63" y="703.5" >do_syscall_64</text>
</g>
<g >
<title>entry_SYSCALL_64_after_hwframe (10,101,010 samples, 1.69%)</title><rect x="947.3" y="677" width="26.8" height="15.0" fill="rgb(218,63,15)" rx="2" ry="2" />
<text  x="950.29" y="687.5" >e..</text>
</g>
<g >
<title>do_syscall_64 (10,101,010 samples, 1.69%)</title><rect x="947.3" y="661" width="26.8" height="15.0" fill="rgb(209,20,4)" rx="2" ry="2" />
<text  x="950.29" y="671.5" >d..</text>
</g>
<g >
<title>ip_local_deliver (10,101,010 samples, 1.69%)</title><rect x="1161.5" y="181" width="26.8" height="15.0" fill="rgb(230,116,27)" rx="2" ry="2" />
<text  x="1164.53" y="191.5" >i..</text>
</g>
<g >
<title>ep_poll (40,404,040 samples, 6.78%)</title><rect x="1322.2" y="629" width="107.1" height="15.0" fill="rgb(238,151,36)" rx="2" ry="2" />
<text  x="1325.20" y="639.5" >ep_poll</text>
</g>
<g >
<title>x64_sys_call (70,707,070 samples, 11.86%)</title><rect x="1027.6" y="677" width="187.5" height="15.0" fill="rgb(247,194,46)" rx="2" ry="2" />
<text  x="1030.63" y="687.5" >x64_sys_call</text>
</g>
<g >
<title>[unknown] (20,202,020 samples, 3.39%)</title><rect x="1536.4" y="885" width="53.6" height="15.0" fill="rgb(210,24,5)" rx="2" ry="2" />
<text  x="1539.44" y="895.5" >[unkn..</text>
</g>
<g >
<title>[kube-apiserver] (20,202,020 samples, 3.39%)</title><rect x="1536.4" y="805" width="53.6" height="15.0" fill="rgb(240,162,38)" rx="2" ry="2" />
<text  x="1539.44" y="815.5" >[kube..</text>
</g>
<g >
<title>[kube-apiserver] (20,202,020 samples, 3.39%)</title><rect x="1536.4" y="789" width="53.6" height="15.0" fill="rgb(240,162,38)" rx="2" ry="2" />
<text  x="1539.44" y="799.5" >[kube..</text>
</g>
<g >
<title>syscall_exit_to_user_mode (10,101,010 samples, 1.69%)</title><rect x="1215.1" y="693" width="26.8" height="15.0" fill="rgb(251,211,50)" rx="2" ry="2" />
<text  x="1218.08" y="703.5" >s..</text>
</g>
<g >
<title>schedule_hrtimeout_range (40,404,040 samples, 6.78%)</title><rect x="1054.4" y="597" width="107.1" height="15.0" fill="rgb(221,75,18)" rx="2" ry="2" />
<text  x="1057.41" y="607.5" >schedule_hrti..</text>
</g>
<g >
<title>__futex_wait (10,101,010 samples, 1.69%)</title><rect x="974.1" y="597" width="26.7" height="15.0" fill="rgb(207,12,3)" rx="2" ry="2" />
<text  x="977.07" y="607.5" >_..</text>
</g>
<g >
<title>__x64_sys_epoll_pwait (70,707,070 samples, 11.86%)</title><rect x="1241.9" y="677" width="187.4" height="15.0" fill="rgb(232,128,30)" rx="2" ry="2" />
<text  x="1244.86" y="687.5" >__x64_sys_epoll_pwait</text>
</g>
<g >
<title>finish_task_switch.isra.0 (30,303,030 samples, 5.08%)</title><rect x="1081.2" y="533" width="80.3" height="15.0" fill="rgb(246,189,45)" rx="2" ry="2" />
<text  x="1084.19" y="543.5" >finish_ta..</text>
</g>
<g >
<title>do_epoll_wait (40,404,040 samples, 6.78%)</title><rect x="1054.4" y="629" width="107.1" height="15.0" fill="rgb(211,31,7)" rx="2" ry="2" />
<text  x="1057.41" y="639.5" >do_epoll_wait</text>
</g>
<g >
<title>__netif_receive_skb_one_core (10,101,010 samples, 1.69%)</title><rect x="1161.5" y="213" width="26.8" height="15.0" fill="rgb(215,47,11)" rx="2" ry="2" />
<text  x="1164.53" y="223.5" >_..</text>
</g>
<g >
<title>[kube-apiserver] (20,202,020 samples, 3.39%)</title><rect x="1482.9" y="853" width="53.5" height="15.0" fill="rgb(240,162,38)" rx="2" ry="2" />
<text  x="1485.88" y="863.5" >[kube..</text>
</g>
<g >
<title>[kube-apiserver] (545,454,540 samples, 91.53%)</title><rect x="36.8" y="853" width="1446.1" height="15.0" fill="rgb(240,162,38)" rx="2" ry="2" />
<text  x="39.78" y="863.5" >[kube-apiserver]</text>
</g>
<g >
<title>ip_finish_output2 (10,101,010 samples, 1.69%)</title><rect x="1161.5" y="389" width="26.8" height="15.0" fill="rgb(219,67,16)" rx="2" ry="2" />
<text  x="1164.53" y="399.5" >i..</text>
</g>
<g >
<title>[kube-apiserver] (383,838,380 samples, 64.41%)</title><rect x="438.5" y="789" width="1017.6" height="15.0" fill="rgb(240,162,38)" rx="2" ry="2" />
<text  x="441.47" y="799.5" >[kube-apiserver]</text>
</g>
<g >
<title>__netif_receive_skb (10,101,010 samples, 1.69%)</title><rect x="1161.5" y="229" width="26.8" height="15.0" fill="rgb(218,60,14)" rx="2" ry="2" />
<text  x="1164.53" y="239.5" >_..</text>
</g>
<g >
<title>__schedule (10,101,010 samples, 1.69%)</title><rect x="974.1" y="549" width="26.7" height="15.0" fill="rgb(227,103,24)" rx="2" ry="2" />
<text  x="977.07" y="559.5" >_..</text>
</g>
<g >
<title>schedule (10,101,010 samples, 1.69%)</title><rect x="974.1" y="565" width="26.7" height="15.0" fill="rgb(254,229,54)" rx="2" ry="2" />
<text  x="977.07" y="575.5" >s..</text>
</g>
<g >
<title>[kube-apiserver] (555,555,550 samples, 93.22%)</title><rect x="10.0" y="869" width="1472.9" height="15.0" fill="rgb(240,162,38)" rx="2" ry="2" />
<text  x="13.00" y="879.5" >[kube-apiserver]</text>
</g>
<g >
<title>[kube-apiserver] (10,101,010 samples, 1.69%)</title><rect x="840.2" y="517" width="26.7" height="15.0" fill="rgb(240,162,38)" rx="2" ry="2" />
<text  x="843.17" y="527.5" >[..</text>
</g>
<g >
<title>[kube-apiserver] (20,202,020 samples, 3.39%)</title><rect x="1482.9" y="869" width="53.5" height="15.0" fill="rgb(240,162,38)" rx="2" ry="2" />
<text  x="1485.88" y="879.5" >[kube..</text>
</g>
<g >
<title>__schedule (40,404,040 samples, 6.78%)</title><rect x="1322.2" y="565" width="107.1" height="15.0" fill="rgb(227,103,24)" rx="2" ry="2" />
<text  x="1325.20" y="575.5" >__schedule</text>
</g>
<g >
<title>ip_queue_xmit (10,101,010 samples, 1.69%)</title><rect x="1161.5" y="485" width="26.8" height="15.0" fill="rgb(230,119,28)" rx="2" ry="2" />
<text  x="1164.53" y="495.5" >i..</text>
</g>
<g >
<title>do_epoll_pwait.part.0 (20,202,020 samples, 3.39%)</title><rect x="866.9" y="501" width="53.6" height="15.0" fill="rgb(248,197,47)" rx="2" ry="2" />
<text  x="869.95" y="511.5" >do_ep..</text>
</g>
<g >
<title>ksys_write (10,101,010 samples, 1.69%)</title><rect x="1161.5" y="645" width="26.8" height="15.0" fill="rgb(205,4,1)" rx="2" ry="2" />
<text  x="1164.53" y="655.5" >k..</text>
</g>
<g >
<title>__irq_exit_rcu (10,101,010 samples, 1.69%)</title><rect x="1456.1" y="741" width="26.8" height="15.0" fill="rgb(227,101,24)" rx="2" ry="2" />
<text  x="1459.10" y="751.5" >_..</text>
</g>
<g >
<title>sock_def_readable (10,101,010 samples, 1.69%)</title><rect x="1161.5" y="53" width="26.8" height="15.0" fill="rgb(216,54,13)" rx="2" ry="2" />
<text  x="1164.53" y="63.5" >s..</text>
</g>
<g >
<title>run_rebalance_domains (10,101,010 samples, 1.69%)</title><rect x="1456.1" y="709" width="26.8" height="15.0" fill="rgb(232,126,30)" rx="2" ry="2" />
<text  x="1459.10" y="719.5" >r..</text>
</g>
<g >
<title>tcp_v4_rcv (10,101,010 samples, 1.69%)</title><rect x="1161.5" y="133" width="26.8" height="15.0" fill="rgb(237,148,35)" rx="2" ry="2" />
<text  x="1164.53" y="143.5" >t..</text>
</g>
<g >
<title>[kube-apiserver] (424,242,420 samples, 71.19%)</title><rect x="358.1" y="805" width="1124.8" height="15.0" fill="rgb(240,162,38)" rx="2" ry="2" />
<text  x="361.14" y="815.5" >[kube-apiserver]</text>
</g>
<g >
<title>__x64_sys_futex (20,202,020 samples, 3.39%)</title><rect x="974.1" y="645" width="53.5" height="15.0" fill="rgb(239,159,38)" rx="2" ry="2" />
<text  x="977.07" y="655.5" >__x64..</text>
</g>
<g >
<title>[kube-apiserver] (20,202,020 samples, 3.39%)</title><rect x="1482.9" y="789" width="53.5" height="15.0" fill="rgb(240,162,38)" rx="2" ry="2" />
<text  x="1485.88" y="799.5" >[kube..</text>
</g>
<g >
<title>tcp_sendmsg_locked (10,101,010 samples, 1.69%)</title><rect x="1161.5" y="565" width="26.8" height="15.0" fill="rgb(215,48,11)" rx="2" ry="2" />
<text  x="1164.53" y="575.5" >t..</text>
</g>
<g >
<title>do_syscall_64 (80,808,080 samples, 13.56%)</title><rect x="1241.9" y="709" width="214.2" height="15.0" fill="rgb(209,20,4)" rx="2" ry="2" />
<text  x="1244.86" y="719.5" >do_syscall_64</text>
</g>
<g >
<title>[kube-apiserver] (20,202,020 samples, 3.39%)</title><rect x="1482.9" y="805" width="53.5" height="15.0" fill="rgb(240,162,38)" rx="2" ry="2" />
<text  x="1485.88" y="815.5" >[kube..</text>
</g>
<g >
<title>[kube-apiserver] (383,838,380 samples, 64.41%)</title><rect x="438.5" y="773" width="1017.6" height="15.0" fill="rgb(240,162,38)" rx="2" ry="2" />
<text  x="441.47" y="783.5" >[kube-apiserver]</text>
</g>
<g >
<title>_raw_spin_unlock_irqrestore (10,101,010 samples, 1.69%)</title><rect x="947.3" y="565" width="26.8" height="15.0" fill="rgb(228,106,25)" rx="2" ry="2" />
<text  x="950.29" y="575.5" >_..</text>
</g>
<g >
<title>__ip_queue_xmit (10,101,010 samples, 1.69%)</title><rect x="1161.5" y="469" width="26.8" height="15.0" fill="rgb(253,223,53)" rx="2" ry="2" />
<text  x="1164.53" y="479.5" >_..</text>
</g>
<g >
<title>futex_wait (10,101,010 samples, 1.69%)</title><rect x="974.1" y="613" width="26.7" height="15.0" fill="rgb(235,138,33)" rx="2" ry="2" />
<text  x="977.07" y="623.5" >f..</text>
</g>
<g >
<title>schedule_hrtimeout_range (20,202,020 samples, 3.39%)</title><rect x="866.9" y="453" width="53.6" height="15.0" fill="rgb(221,75,18)" rx="2" ry="2" />
<text  x="869.95" y="463.5" >sched..</text>
</g>
<g >
<title>x64_sys_call (20,202,020 samples, 3.39%)</title><rect x="974.1" y="661" width="53.5" height="15.0" fill="rgb(247,194,46)" rx="2" ry="2" />
<text  x="977.07" y="671.5" >x64_s..</text>
</g>
<g >
<title>do_futex (20,202,020 samples, 3.39%)</title><rect x="1482.9" y="709" width="53.5" height="15.0" fill="rgb(245,184,44)" rx="2" ry="2" />
<text  x="1485.88" y="719.5" >do_fu..</text>
</g>
<g >
<title>[kube-apiserver] (555,555,550 samples, 93.22%)</title><rect x="10.0" y="885" width="1472.9" height="15.0" fill="rgb(240,162,38)" rx="2" ry="2" />
<text  x="13.00" y="895.5" >[kube-apiserver]</text>
</g>
<g >
<title>tcp_data_ready (10,101,010 samples, 1.69%)</title><rect x="1161.5" y="69" width="26.8" height="15.0" fill="rgb(232,124,29)" rx="2" ry="2" />
<text  x="1164.53" y="79.5" >t..</text>
</g>
<g >
<title>schedule (40,404,040 samples, 6.78%)</title><rect x="1322.2" y="581" width="107.1" height="15.0" fill="rgb(254,229,54)" rx="2" ry="2" />
<text  x="1325.20" y="591.5" >schedule</text>
</g>
</g>
</svg>
